<?xml version="1.0" encoding="utf-8"?>
<!-- Generator: Adobe Illustrator 16.0.2, SVG Export Plug-In . SVG Version: 6.00 Build 0)  -->
<!DOCTYPE svg PUBLIC "-//W3C//DTD SVG 1.1//EN" "http://www.w3.org/Graphics/SVG/1.1/DTD/svg11.dtd">
<svg version="1.1" id="Layer_1" xmlns="http://www.w3.org/2000/svg" xmlns:xlink="http://www.w3.org/1999/xlink" x="0px" y="0px"
	 width="300px" height="300px" viewBox="0 0 300 300" enable-background="new 0 0 300 300" xml:space="preserve">
<g id="XMLID_690_">
	<g id="XMLID_691_">
		<g>
			<g id="XMLID_44_">
				<g id="XMLID_48_">
					<path id="XMLID_49_" fill="#0080FF" d="M150.021,300v-58.173c61.575,0,109.37-61.063,85.725-125.867
						c-8.674-23.812-27.895-43.033-51.875-51.709C119.064,40.778,58,88.404,58,149.978l0,0H0C0,51.836,94.911-24.706,197.816,7.441
						c44.904,14.118,80.795,49.837,94.742,94.742C324.707,205.086,248.163,300,150.021,300z"/>
				</g>
				<polygon id="XMLID_47_" fill="#0080FF" points="150.19,242.168 92.189,242.168 92.189,184.166 92.189,184.166 150.19,184.166 
					150.19,184.166 				"/>
				<polygon id="XMLID_46_" fill="#0080FF" points="92.189,286.562 47.796,286.562 47.796,286.562 47.796,242.168 92.189,242.168 
									"/>
				<path id="XMLID_45_" fill="#0080FF" d="M47.796,242.168h-37.25l0,0v-37.25l0,0h37.25l0,0V242.168z"/>
			</g>
		</g>
	</g>
</g>
</svg>
